# xmcd
#
# Track frame offsets:
#	150
#	7200
#	16685
#	22345
#	28607
#	34658
#	46978
#	56784
#	65013
#	71056
#	82151
#
# Disc length: 1249 seconds
#
# Revision: 1
# Processed by: cddbd v1.5.2PL0 Copyright (c) Steve Scherf et al.
# Submitted via: audiograbber 1.83.01
#
DISCID=9904df0b
DTITLE=Noulac - To paidi kai h mousiki
DYEAR=2006
DGENRE=Ballad
TTITLE0=Oneira glyka
TTITLE1=Koimisou arkoudaki
TTITLE2=Glyko Xadi
TTITLE3=San ouranio tokso
TTITLE4=Xoros sta sinefa
TTITLE5=Kokkina magoulakia
TTITLE6=Xamogela mou
TTITLE7=Katw apo tin koyvertoula
TTITLE8=Asterakia lambera
TTITLE9=Ta fota svinoun
TTITLE10=Kalinikta
EXTD=
EXTT0=
EXTT1=
EXTT2=
EXTT3=
EXTT4=
EXTT5=
EXTT6=
EXTT7=
EXTT8=
EXTT9=
EXTT10=
PLAYORDER=
